<svg width="527" height="597" xmlns="http://www.w3.org/2000/svg" xmlns:xlink="http://www.w3.org/1999/xlink" xml:space="preserve" overflow="hidden"><g transform="translate(-963 -842)"><g><g><g><path d="M1264 1150.25 1264 1150.25 1119.62 1287.75 1135.09 1300.81 1264 1178.44 1264 1178.44 1392.91 1300.81 1408.38 1287.75Z"/><path d="M1160.88 1295.66 1160.88 1397.75 1243.38 1397.75 1243.38 1311.81 1284.62 1311.81 1284.62 1397.75 1367.12 1397.75 1367.12 1295.66 1264 1197.69 1160.88 1295.66Z"/></g></g></g><g><g><g><path d="M1418.81 1006.66C1417.78 1006.66 1416.41 1006.66 1415.37 1006.66 1415.37 1006.66 1415.37 1006.66 1415.37 1006.66 1415.37 989.812 1407.12 974.344 1393.72 964.719 1379.97 955.094 1362.44 952.687 1346.62 958.187 1333.56 932.75 1304.69 919.687 1277.19 926.219 1249.69 932.75 1229.75 957.5 1229.75 986.031 1229.75 986.031 1229.75 986.375 1229.75 986.719 1210.84 983.625 1191.94 991.531 1180.25 1006.66 1168.91 1022.12 1166.84 1042.41 1174.75 1059.59 1183 1076.78 1200.19 1088.12 1219.09 1089.16L1219.09 1089.5 1418.47 1089.5C1441.16 1089.5 1459.72 1070.94 1459.72 1048.25 1459.72 1025.56 1441.5 1006.66 1418.81 1006.66Z"/></g></g></g><g><g><g><path d="M1329.71 1243.35 1357.44 1150.08 1314.58 1150.08 1335.81 1037.25 1399.23 1037.25 1372.56 1119.83 1415.42 1119.83 1329.71 1243.35Z"/></g></g></g><g><g><g><path d="M1465.47 1235.17 1459.75 1231.87 1464.2 1230.72C1465.6 1230.34 1466.36 1228.95 1465.98 1227.68 1465.6 1226.4 1464.2 1225.51 1462.93 1225.9L1453.53 1228.44 1449.84 1226.28 1461.28 1223.23C1462.68 1222.85 1463.44 1221.45 1463.06 1220.18 1462.68 1218.91 1461.28 1218.02 1460.01 1218.4L1443.61 1222.72 1438.79 1219.92C1439.04 1219.03 1439.17 1218.14 1439.17 1217.25 1439.17 1216.36 1439.04 1215.35 1438.79 1214.59L1443.61 1211.79 1460.01 1216.11C1460.26 1216.11 1460.39 1216.24 1460.64 1216.24 1461.79 1216.24 1462.8 1215.47 1463.06 1214.33 1463.44 1212.93 1462.68 1211.54 1461.28 1211.28L1449.84 1208.23 1453.53 1206.07 1462.93 1208.61C1463.19 1208.61 1463.31 1208.74 1463.57 1208.74 1464.71 1208.74 1465.73 1207.98 1465.98 1206.83 1466.36 1205.44 1465.6 1204.04 1464.2 1203.78L1459.75 1202.64 1465.47 1199.34C1466.74 1198.57 1467.13 1197.05 1466.36 1195.9 1465.6 1194.63 1464.08 1194.25 1462.93 1195.01L1457.21 1198.32 1458.36 1193.87C1458.74 1192.47 1457.98 1191.07 1456.58 1190.82 1455.18 1190.44 1453.78 1191.2 1453.53 1192.6L1450.99 1202 1447.3 1204.16 1450.35 1192.73C1450.73 1191.33 1449.97 1189.93 1448.57 1189.68 1447.17 1189.3 1445.78 1190.06 1445.52 1191.46L1441.2 1207.85 1436.37 1210.65C1435.1 1209.38 1433.45 1208.36 1431.67 1207.98L1431.67 1202.39 1443.61 1190.44C1444.63 1189.42 1444.63 1187.9 1443.61 1186.88 1442.6 1185.86 1441.07 1185.86 1440.06 1186.88L1431.54 1194.38 1431.54 1190.19 1438.4 1183.32C1439.42 1182.31 1439.42 1180.78 1438.4 1179.76 1437.39 1178.75 1435.86 1178.75 1434.85 1179.76L1431.54 1182.94 1431.54 1176.33C1431.54 1174.94 1430.4 1173.79 1429 1173.79 1427.6 1173.79 1426.46 1174.94 1426.46 1176.33L1426.46 1182.94 1423.15 1179.64C1422.14 1178.62 1420.61 1178.62 1419.6 1179.64 1418.58 1180.65 1418.58 1182.18 1419.6 1183.2L1426.46 1190.06 1426.46 1194.25 1418.07 1185.86C1417.05 1184.85 1415.53 1184.85 1414.51 1185.86 1413.5 1186.88 1413.5 1188.41 1414.51 1189.42L1426.46 1201.37 1426.46 1206.96C1424.68 1207.47 1423.03 1208.36 1421.76 1209.63L1416.93 1206.83 1412.48 1190.69C1412.1 1189.3 1410.7 1188.53 1409.43 1188.91 1408.03 1189.3 1407.27 1190.69 1407.65 1191.96L1410.7 1203.4 1407.01 1201.24 1404.47 1191.84C1404.09 1190.44 1402.69 1189.68 1401.42 1190.06 1400.03 1190.44 1399.26 1191.84 1399.64 1193.11L1400.79 1197.56 1395.07 1194.25C1393.8 1193.49 1392.27 1194 1391.64 1195.14 1390.88 1196.41 1391.38 1197.94 1392.53 1198.57L1398.25 1201.88 1393.8 1203.02C1392.4 1203.4 1391.64 1204.8 1392.02 1206.07 1392.27 1207.21 1393.29 1207.98 1394.43 1207.98 1394.69 1207.98 1394.81 1207.98 1395.07 1207.85L1404.47 1205.31 1408.16 1207.47 1396.72 1210.52C1395.32 1210.9 1394.56 1212.3 1394.94 1213.57 1395.2 1214.71 1396.21 1215.47 1397.36 1215.47 1397.61 1215.47 1397.74 1215.47 1397.99 1215.35L1414.39 1211.03 1419.21 1213.82C1418.96 1215.09 1418.83 1216.11 1418.83 1217 1418.83 1217.89 1418.96 1218.91 1419.21 1219.67L1414.39 1222.46 1397.99 1218.14C1396.59 1217.76 1395.2 1218.53 1394.94 1219.92 1394.69 1221.32 1395.32 1222.72 1396.72 1222.97L1408.16 1226.02 1404.47 1228.18 1395.07 1225.64C1393.67 1225.26 1392.27 1226.02 1392.02 1227.42 1391.76 1228.82 1392.4 1230.22 1393.8 1230.47L1398.25 1231.61 1392.53 1234.92C1391.26 1235.68 1390.88 1237.21 1391.64 1238.35 1392.15 1239.11 1392.91 1239.62 1393.8 1239.62 1394.18 1239.62 1394.69 1239.49 1395.07 1239.24L1400.79 1235.94 1399.64 1240.38C1399.26 1241.78 1400.03 1243.18 1401.42 1243.43 1401.68 1243.43 1401.8 1243.56 1402.06 1243.56 1403.2 1243.56 1404.22 1242.8 1404.47 1241.65L1407.01 1232.25 1410.7 1230.09 1407.65 1241.53C1407.27 1242.93 1408.03 1244.32 1409.43 1244.58 1409.68 1244.58 1409.81 1244.7 1410.06 1244.7 1411.21 1244.7 1412.23 1243.94 1412.48 1242.8L1416.8 1226.4 1421.63 1223.61C1422.9 1224.88 1424.55 1225.9 1426.33 1226.28L1426.33 1231.87 1414.39 1243.81C1413.37 1244.83 1413.37 1246.36 1414.39 1247.37 1415.4 1248.39 1416.93 1248.39 1417.94 1247.37L1426.33 1238.99 1426.33 1243.18 1419.47 1250.04C1418.45 1251.06 1418.45 1252.58 1419.47 1253.6 1420.49 1254.62 1422.01 1254.62 1423.03 1253.6L1426.33 1250.3 1426.33 1257.67C1426.33 1259.06 1427.48 1260.21 1428.87 1260.21 1430.27 1260.21 1431.41 1259.06 1431.41 1257.67L1431.41 1251.06 1434.72 1254.36C1435.35 1254.87 1435.99 1255.12 1436.63 1255.12 1437.26 1255.12 1437.9 1254.87 1438.4 1254.36 1439.42 1253.35 1439.42 1251.82 1438.4 1250.8L1431.54 1243.94 1431.54 1239.75 1439.93 1248.14C1440.44 1248.52 1441.07 1248.77 1441.71 1248.77 1442.34 1248.77 1442.98 1248.52 1443.49 1248.01 1444.5 1246.99 1444.5 1245.47 1443.49 1244.45L1431.54 1232.5 1431.54 1226.91C1433.32 1226.4 1434.97 1225.51 1436.24 1224.24L1441.07 1227.04 1445.52 1243.31C1445.78 1244.45 1446.79 1245.21 1447.94 1245.21 1448.19 1245.21 1448.32 1245.21 1448.57 1245.09 1449.97 1244.7 1450.73 1243.31 1450.35 1242.04L1447.3 1230.6 1450.99 1232.76 1453.53 1242.16C1453.78 1243.31 1454.8 1244.07 1455.94 1244.07 1456.2 1244.07 1456.32 1244.07 1456.58 1243.94 1457.98 1243.56 1458.74 1242.16 1458.36 1240.89L1457.21 1236.44 1462.93 1239.75C1463.31 1240 1463.82 1240.13 1464.2 1240.13 1465.09 1240.13 1465.98 1239.62 1466.36 1238.86 1467.13 1237.33 1466.74 1235.81 1465.47 1235.17Z"/></g></g></g><g><g><g><path d="M976.75 1041.69 1038.62 1041.69 1038.62 1062.31 976.75 1062.31Z"/><path d="M1217.37 1041.69 1279.25 1041.69 1279.25 1062.31 1217.37 1062.31Z"/><path d="M1203.62 1052C1203.62 1093.77 1169.77 1127.62 1128 1127.62 1086.23 1127.62 1052.37 1093.77 1052.37 1052 1052.37 1010.23 1086.23 976.375 1128 976.375 1169.77 976.375 1203.62 1010.23 1203.62 1052Z"/><path d="M1117.69 1141.37 1138.31 1141.37 1138.31 1203.25 1117.69 1203.25Z"/><path d="M1117.69 900.75 1138.31 900.75 1138.31 962.625 1117.69 962.625Z"/><path d="M1071.93 1122.31 1028.17 1166.06 1013.59 1151.48 1057.34 1107.73Z"/><path d="M1242.41 952.514 1198.66 996.266 1184.07 981.682 1227.82 937.93Z"/><path d="M1072.26 981.344 1057.68 995.928 1013.93 952.176 1028.51 937.592Z"/><path d="M1242.07 1151.82 1227.49 1166.4 1183.73 1122.65 1198.32 1108.07Z"/></g></g></g></g></svg>